<?xml version="1.0" standalone="no"?>
<!DOCTYPE svg PUBLIC "-//W3C//DTD SVG 20010904//EN"
 "http://www.w3.org/TR/2001/REC-SVG-20010904/DTD/svg10.dtd">
<svg version="1.0" xmlns="http://www.w3.org/2000/svg"
 width="270.000000pt" height="270.000000pt" viewBox="0 0 270.000000 270.000000"
 preserveAspectRatio="xMidYMid meet">
<metadata>
Created by potrace 1.14, written by Peter Selinger 2001-2017
</metadata>
<g transform="translate(0.000000,270.000000) scale(0.100000,-0.100000)"
fill="#000000" stroke="none">
<path d="M0 1350 l0 -1350 1350 0 1350 0 0 1350 0 1350 -1350 0 -1350 0 0
-1350z m1655 1226 c79 -14 101 -24 88 -37 -6 -6 -51 -3 -113 7 -125 20 -329
15 -434 -10 -78 -19 -102 -17 -65 7 62 41 372 61 524 33z m135 -42 c0 -8 -4
-12 -10 -9 -5 3 -10 10 -10 16 0 5 5 9 10 9 6 0 10 -7 10 -16z m-112 -15 l72
-12 0 -37 c0 -20 -3 -65 -6 -99 l-7 -61 -66 5 c-201 17 -371 51 -451 90 -121
59 -135 76 -77 93 54 16 120 31 157 36 61 7 302 -2 378 -15z m217 -1 c59 -21
133 -57 140 -68 15 -25 -27 -18 -93 15 -39 19 -79 35 -90 35 -25 0 -49 26 -30
33 13 4 23 2 73 -15z m-835 -6 c0 -4 -14 -18 -31 -32 -60 -48 -140 -139 -176
-200 -73 -124 -89 -165 -58 -153 9 3 14 11 12 17 -3 9 41 101 77 159 15 24 31
21 45 -9 6 -15 14 -24 17 -21 3 3 -2 17 -12 31 -22 35 -10 46 16 15 14 -17 18
-33 14 -54 -8 -45 -26 -89 -40 -97 -7 -5 -10 -17 -7 -28 3 -11 1 -20 -3 -20
-40 -1 -150 -23 -161 -32 -7 -6 -17 -7 -21 -3 -4 4 -1 10 6 12 6 3 12 13 12
23 0 50 153 274 243 358 44 40 67 52 67 34z m750 -29 c0 19 15 23 25 7 3 -5
13 -10 21 -10 8 0 51 -17 97 -39 45 -21 89 -41 98 -44 12 -4 17 -24 22 -82 3
-49 11 -83 21 -94 9 -10 16 -24 16 -32 0 -8 7 -3 17 10 13 19 14 27 4 43 -10
17 -9 20 8 25 30 8 26 17 -11 28 -22 7 -35 19 -41 38 -15 48 2 44 52 -10 47
-51 70 -104 76 -171 1 -16 5 -34 9 -41 8 -13 -19 -61 -34 -61 -14 0 -12 24 3
39 10 11 8 12 -10 7 -22 -7 -41 8 -23 19 5 3 7 18 4 33 -8 34 -24 53 -24 28 0
-9 -4 -14 -10 -11 -13 8 -13 -14 1 -55 9 -25 9 -34 -1 -40 -13 -8 -9 -12 35
-36 11 -5 34 -19 50 -29 l30 -19 -18 21 c-18 21 -16 63 3 63 11 0 31 -60 24
-72 -3 -5 4 -20 17 -34 32 -34 17 -40 -27 -10 -21 14 -39 24 -41 22 -7 -7 10
-36 21 -36 7 0 23 -10 35 -21 21 -20 22 -27 16 -86 -8 -79 -21 -124 -37 -134
-7 -5 -11 -28 -9 -63 2 -57 -5 -96 -17 -96 -16 0 -11 135 6 160 12 19 15 46
13 115 -1 49 -6 94 -11 99 -6 6 -7 -28 -4 -82 3 -54 1 -92 -4 -92 -6 0 -10 21
-10 48 0 26 -5 78 -11 115 -7 37 -9 72 -6 76 5 10 -23 37 -31 29 -2 -3 0 -18
7 -34 14 -38 38 -236 29 -249 -13 -18 -18 -55 -9 -61 5 -3 9 -48 9 -100 0
-104 -2 -107 -60 -74 l-35 21 30 -26 c17 -14 38 -28 48 -31 18 -6 24 -34 6
-34 -6 0 -9 -6 -6 -12 2 -7 -1 -29 -8 -48 -7 -19 -22 -75 -34 -125 -25 -110
-81 -285 -110 -345 -11 -24 -21 -50 -21 -57 0 -7 -5 -13 -11 -13 -7 0 -9 -10
-5 -24 4 -15 -2 -43 -14 -71 -11 -26 -20 -59 -20 -74 0 -16 -9 -50 -19 -77
-11 -27 -22 -57 -25 -68 -6 -18 -7 -18 -25 -2 -13 12 -21 14 -26 6 -4 -6 1
-17 11 -24 17 -13 17 -17 2 -72 -13 -44 -14 -61 -5 -67 9 -5 5 -13 -12 -27
-33 -28 -38 -26 -44 22 -5 39 8 77 21 63 9 -9 32 17 32 38 0 19 -1 20 -20 2
-19 -18 -20 -17 -20 2 0 11 3 23 8 27 4 4 8 20 9 34 4 45 20 151 43 277 12 66
28 157 36 202 8 45 21 102 30 125 9 24 20 66 26 93 6 28 16 55 23 60 6 6 14
21 18 35 3 14 11 45 17 70 6 25 12 60 12 78 0 17 5 32 12 32 6 1 -2 12 -19 25
-28 23 -28 25 -8 25 12 0 25 -4 28 -10 3 -5 11 -10 17 -10 7 0 7 4 1 13 -6 6
-13 28 -16 47 -4 19 -9 45 -12 56 -6 20 -2 22 54 28 34 4 61 12 61 18 0 6 -10
7 -27 2 -16 -4 -45 -8 -65 -9 -33 0 -38 -3 -44 -30 -3 -16 -9 -34 -13 -40 -3
-5 -7 -19 -8 -30 -1 -11 -4 -36 -7 -55 -2 -19 -11 -71 -19 -115 -9 -44 -23
-118 -32 -165 -9 -47 -23 -119 -31 -160 -8 -41 -21 -113 -29 -160 -15 -93 -22
-132 -36 -200 -35 -176 -62 -342 -61 -377 0 -24 -3 -43 -8 -43 -17 0 -17 70 2
170 10 58 25 141 33 185 25 143 46 259 55 305 5 25 18 99 30 165 12 66 35 185
52 265 16 80 31 163 33 185 1 22 8 58 14 81 15 56 51 298 51 345 0 39 12 51
27 25 5 -9 18 -12 36 -9 32 6 36 23 6 23 -17 0 -20 5 -16 21 7 25 -15 51 -36
44 -11 -5 -14 16 -15 118 -1 109 -14 189 -27 175 -3 -2 0 -54 6 -115 13 -127
3 -183 -16 -93 -6 30 -10 68 -9 83 3 27 1 28 -34 25 -40 -3 -53 -30 -17 -36
11 -2 26 -9 33 -14 14 -12 16 -58 2 -58 -5 0 -10 9 -10 19 0 11 -5 23 -12 27
-8 5 -9 2 -4 -12 6 -16 26 -108 26 -120 0 -2 5 -4 10 -4 6 0 9 14 7 33 -2 17
-2 24 0 15 2 -10 7 -18 11 -18 4 0 8 -14 9 -30 3 -35 -10 -38 -78 -16 -24 8
-70 20 -101 26 -57 11 -79 30 -35 30 21 0 22 4 22 84 0 76 -2 86 -20 90 -10 3
-21 3 -23 1 -2 -2 -7 -34 -10 -70 -3 -41 -9 -64 -16 -62 -6 2 -11 12 -11 23 1
64 18 300 22 308 3 5 12 -2 19 -15 10 -19 13 -20 14 -6z m-723 5 c-31 -74 -49
-127 -68 -201 -27 -99 -32 -111 -47 -106 -10 3 73 276 93 309 9 14 28 13 22
-2z m-62 -55 c-4 -10 -13 -37 -21 -61 -19 -62 -23 -66 -45 -46 -28 25 -24 43
18 86 40 41 60 49 48 21z m99 1 c4 -11 1 -14 -11 -12 -9 2 -18 9 -21 16 -6 18
25 15 32 -4z m-24 -29 c0 -14 5 -17 40 -19 23 -2 120 -48 120 -58 0 -4 7 -8
15 -8 23 0 18 -15 -22 -78 -41 -61 -53 -73 -65 -66 -4 3 13 32 39 64 25 33 43
63 38 68 -4 4 -9 2 -11 -3 -13 -34 -88 -125 -104 -125 -10 0 -22 -4 -25 -10
-3 -6 -22 1 -45 15 -22 14 -40 21 -40 15 0 -5 5 -10 10 -10 6 0 10 -4 10 -10
0 -5 -11 -10 -25 -10 -31 0 -32 17 -5 67 11 21 17 46 14 55 -3 10 4 31 15 47
12 16 17 31 11 33 -14 5 0 48 16 48 8 0 14 -7 14 -15z m1031 -16 c41 -32 65
-66 55 -77 -7 -6 -106 87 -106 100 0 14 11 9 51 -23z m-886 -19 c3 -5 2 -10
-4 -10 -5 0 -13 5 -16 10 -3 6 -2 10 4 10 5 0 13 -4 16 -10z m165 -70 c30 -6
63 -17 74 -25 18 -14 18 -15 -3 -58 l-22 -45 -114 -1 c-66 -1 -115 2 -115 8 0
8 58 99 82 129 6 7 18 10 27 8 9 -3 41 -10 71 -16z m57 14 c-3 -3 -12 -4 -19
-1 -8 3 -5 6 6 6 11 1 17 -2 13 -5z m231 -20 c17 -3 32 -10 32 -15 0 -6 -8 -8
-17 -5 -10 2 -47 8 -83 11 -88 10 -114 26 -30 19 36 -3 80 -7 98 -10z m11 -34
c22 -5 26 -13 28 -44 0 -21 -4 -39 -10 -41 -7 -2 -65 -6 -129 -9 -125 -6 -134
-3 -108 42 5 9 14 29 20 45 l10 27 82 -6 c45 -4 93 -10 107 -14z m411 -33 c0
-18 -2 -19 -10 -7 -13 20 -13 43 0 35 6 -3 10 -16 10 -28z m142 -85 c50 -160
52 -172 33 -172 -9 0 -17 6 -19 13 -2 6 -14 55 -27 107 -12 52 -28 109 -36
127 -16 40 -16 43 0 43 7 0 28 -50 49 -118z m-442 58 c0 -27 -4 -50 -10 -50
-5 0 -10 23 -10 50 0 28 5 50 10 50 6 0 10 -22 10 -50z m-91 -56 c16 -16 -51
-19 -371 -16 -267 3 -358 6 -358 15 0 9 89 11 362 9 199 -1 364 -5 367 -8z
m-749 -10 c0 -17 -22 -14 -28 4 -2 7 3 12 12 12 9 0 16 -7 16 -16z m785 6 c3
-5 1 -10 -4 -10 -6 0 -11 5 -11 10 0 6 2 10 4 10 3 0 8 -4 11 -10z m-641 -29
c3 -5 15 -7 26 -4 17 5 15 -5 -21 -72 -22 -42 -38 -79 -35 -82 5 -5 56 79 78
130 11 23 19 27 58 28 101 3 484 -2 488 -6 2 -2 1 -26 -3 -54 -6 -48 -8 -50
-28 -38 -12 7 -25 17 -29 23 -4 7 -46 18 -93 25 -70 10 -90 10 -110 -1 -27
-14 -49 -5 -25 11 13 8 13 10 0 19 -32 21 -82 -3 -65 -31 10 -16 -14 -29 -54
-29 -61 0 -131 -32 -183 -84 -27 -27 -51 -46 -55 -43 -3 4 0 13 7 22 7 9 8 15
2 15 -6 0 -21 -29 -34 -65 -12 -36 -26 -65 -30 -65 -5 0 -8 17 -8 37 0 35 -1
36 -14 18 -7 -11 -15 -32 -18 -47 -4 -23 -2 -28 15 -28 19 0 19 -1 4 -18 -10
-10 -17 -31 -17 -45 0 -15 -4 -27 -9 -27 -18 0 -28 27 -24 65 2 22 6 60 8 85
9 110 28 227 41 248 12 18 23 22 69 22 29 0 56 -4 59 -9z m619 -166 c-25 -150
-29 -183 -32 -230 0 -14 -6 -25 -11 -25 -12 0 -10 15 21 254 21 155 26 174 39
159 5 -4 -3 -75 -17 -158z m-873 146 c0 -18 -65 -110 -79 -110 -7 -1 -11 -7
-8 -16 4 -8 2 -17 -3 -20 -16 -10 -12 -35 5 -35 20 0 19 -4 -10 -90 -14 -40
-23 -75 -22 -77 2 -2 17 30 32 69 16 40 31 75 35 78 19 13 21 52 5 64 -16 12
-14 18 25 79 56 89 71 89 65 -3 -2 -39 -9 -88 -15 -109 -5 -21 -12 -72 -14
-113 -2 -42 -7 -81 -10 -87 -5 -8 -45 -10 -119 -9 l-112 3 2 32 c4 48 68 234
90 262 2 3 10 -4 18 -15 13 -17 14 -17 15 -1 0 9 -4 17 -10 17 -16 0 -12 46 5
60 25 21 105 37 105 21z m96 -13 c-4 -13 -13 -93 -22 -178 -18 -178 -20 -188
-36 -172 -7 7 -4 58 12 179 25 190 25 193 41 193 7 0 9 -9 5 -22z m891 -4 c24
-2 55 -9 70 -16 16 -6 44 -14 63 -17 32 -6 35 -9 38 -46 6 -76 -28 -235 -50
-235 -15 0 -18 20 -7 44 18 38 -4 103 -49 145 -33 31 -37 32 -49 16 -16 -24
-24 -5 -21 50 3 38 2 40 -27 39 -25 0 -30 -4 -28 -22 2 -12 -2 -22 -7 -22 -6
0 -10 18 -10 41 0 35 3 40 18 34 9 -4 36 -9 59 -11z m223 -4 c0 -5 -4 -10 -10
-10 -5 0 -10 5 -10 10 0 6 5 10 10 10 6 0 10 -4 10 -10z m-1386 -107 c-20 -54
-43 -120 -51 -148 -25 -82 -25 -82 -30 -67 -7 19 12 91 53 202 40 106 42 110
54 110 5 0 -7 -44 -26 -97z m971 -61 c29 -8 30 -11 27 -58 -4 -67 -22 -156
-34 -171 -19 -24 -38 -14 -39 20 0 17 -3 25 -6 17 -11 -29 -27 -28 -57 2 -54
53 -102 71 -170 65 -46 -4 -62 -2 -71 9 -12 17 -45 9 -45 -10 1 -28 15 -33 75
-25 78 11 120 -2 134 -42 10 -28 9 -29 -22 -29 -18 0 -48 4 -68 9 -21 5 -43 4
-53 -1 -10 -6 -53 -7 -102 -3 -84 7 -85 8 -70 29 9 11 23 36 32 54 11 22 22
31 32 27 20 -8 45 14 33 29 -7 8 0 20 22 37 28 22 54 32 142 53 28 7 204 -2
240 -12z m655 -47 c0 -53 -13 -122 -46 -245 -8 -30 -19 -71 -24 -90 -22 -82
-22 -82 -32 -72 -8 8 -8 19 0 39 19 50 73 300 77 355 2 29 4 56 4 61 1 4 6 7
11 7 6 0 10 -25 10 -55z m-410 26 c0 -6 -4 -13 -10 -16 -5 -3 -10 1 -10 9 0 9
5 16 10 16 6 0 10 -4 10 -9z m-86 -76 c31 -40 31 -44 9 -60 -9 -7 -13 -17 -9
-24 6 -9 12 -8 26 4 17 15 19 14 37 -12 22 -33 53 -99 53 -114 0 -6 -9 -9 -20
-7 -10 2 -20 -1 -22 -7 -2 -5 9 -10 24 -10 16 -1 33 -6 40 -13 16 -16 13 -15
-116 12 -65 13 -112 28 -114 36 -5 13 28 11 87 -6 17 -5 22 -4 17 4 -4 7 -17
12 -29 13 -31 1 -81 32 -85 53 -2 10 6 28 18 41 19 20 20 24 6 32 -14 8 -14
16 -4 65 12 55 12 56 34 41 13 -8 34 -30 48 -48z m116 15 c0 -5 -5 -10 -11
-10 -5 0 -7 5 -4 10 3 6 8 10 11 10 2 0 4 -4 4 -10z m-1327 -142 c-10 -21 -12
-21 -18 -5 -10 25 2 54 17 39 8 -8 8 -18 1 -34z m325 0 c-5 -15 -23 -11 -26 6
-2 11 2 14 13 10 9 -4 14 -11 13 -16z m1362 -158 c-11 -63 -25 -116 -30 -118
-6 -2 -10 -12 -10 -23 0 -10 -7 -19 -15 -19 -8 0 -12 -6 -9 -14 6 -14 -13 -32
-23 -22 -9 9 18 65 35 75 14 8 14 11 2 26 -9 11 -10 19 -4 23 15 10 44 105 44
143 0 17 6 50 13 73 l12 41 3 -35 c2 -20 -6 -88 -18 -150z m-1440 160 c0 -6
-39 -11 -95 -11 -52 -1 -100 -2 -107 -3 -6 -1 -13 5 -15 12 -4 9 22 12 106 12
67 0 111 -4 111 -10z m300 -11 c10 -5 -7 -8 -46 -9 -71 0 -154 10 -154 19 0 9
183 0 200 -10z m62 -11 c-9 -9 -15 -9 -24 0 -9 9 -7 12 12 12 19 0 21 -3 12
-12z m296 -8 c57 -4 106 -11 109 -14 17 -17 -19 -19 -130 -7 -67 8 -153 16
-192 19 -54 4 -64 7 -45 13 14 5 54 6 90 3 36 -3 111 -9 168 -14z m187 0 c0
-22 -29 -18 -33 3 -3 14 1 18 15 15 10 -2 18 -10 18 -18z m-837 -70 c4 -102
-11 -155 -59 -207 l-39 -43 6 -72 c4 -40 10 -77 14 -81 12 -14 50 12 50 33 0
22 -26 28 -33 8 -2 -7 -9 11 -16 41 -10 48 -9 57 9 85 19 30 20 30 20 7 0 -13
7 -29 17 -36 34 -25 26 -170 -9 -149 -5 4 -9 -4 -7 -17 1 -13 -1 -62 -5 -109
-8 -88 -25 -146 -76 -255 -27 -58 -32 -64 -53 -56 -27 10 -31 48 -42 356 -7
219 3 388 27 437 14 31 32 38 25 11 -15 -53 -16 -73 -7 -73 5 0 10 7 10 15 0
20 16 19 67 -6 24 -12 46 -19 49 -17 2 3 -18 16 -46 29 -31 15 -48 29 -45 37
2 7 0 21 -7 31 -7 12 -8 30 -2 57 9 37 12 39 54 44 99 11 95 14 98 -70z m-180
64 c13 -4 22 -14 22 -25 0 -21 -15 -25 -24 -6 -4 6 -4 2 -2 -9 2 -15 -1 -21
-13 -20 -11 1 -15 -6 -13 -21 4 -27 -10 -30 -33 -6 -16 16 -16 17 1 30 10 7
12 13 6 13 -13 0 -17 32 -5 43 8 9 31 9 61 1z m267 -21 c-2 -16 -4 -36 -4 -45
-1 -10 -5 -18 -11 -18 -14 0 -12 64 2 78 16 16 17 16 13 -15z m272 12 c138 -9
208 -17 218 -25 6 -4 28 -7 50 -6 22 1 45 -2 51 -6 6 -5 33 -7 60 -6 44 3 49
1 52 -20 6 -41 -18 -132 -35 -132 -12 0 -14 -6 -8 -27 13 -44 6 -181 -10 -220
-8 -20 -15 -46 -15 -59 0 -13 -5 -24 -11 -24 -6 0 -8 7 -5 16 12 31 -13 93
-43 109 -16 8 -35 21 -43 28 -17 17 -74 37 -106 37 -25 0 -25 0 -6 16 18 14
18 15 -6 8 -71 -19 -115 -50 -150 -107 -16 -26 -30 -53 -30 -59 0 -6 -9 -8
-22 -4 -13 3 -29 6 -37 6 -16 0 -8 40 16 77 11 17 19 21 26 14 15 -15 27 -13
27 4 0 8 -4 15 -10 15 -22 0 -7 27 42 77 28 29 49 55 46 58 -5 5 -69 -60 -126
-130 -17 -22 -29 -32 -26 -22 5 13 1 17 -15 17 -26 0 -28 -25 -3 -39 15 -9 15
-13 4 -32 -10 -15 -11 -24 -3 -32 6 -6 11 -18 11 -27 0 -13 7 -15 29 -12 24 3
30 0 33 -18 3 -24 12 -31 68 -49 22 -7 38 -7 44 -1 7 7 3 10 -11 10 -20 0 -39
25 -25 34 28 16 70 14 97 -4 17 -11 42 -20 57 -20 17 0 34 -10 47 -26 25 -31
27 -64 6 -64 -8 0 -15 4 -15 9 0 5 -11 16 -24 24 -41 27 -27 -13 17 -50 59
-50 95 -41 123 32 l15 40 -7 -60 c-3 -33 -10 -94 -14 -135 -18 -167 -32 -259
-52 -330 -11 -41 -21 -104 -22 -140 -2 -61 -4 -65 -27 -69 -32 -5 -364 27
-411 40 -40 10 -44 18 -27 50 19 36 3 43 -17 8 -18 -30 -25 -34 -60 -33 l-39
1 -3 249 c-2 252 8 441 23 397 4 -13 11 -23 15 -23 11 0 -1 43 -14 52 -14 9
-10 242 5 316 8 41 8 61 -2 83 -14 36 0 59 21 34 17 -20 16 -75 0 -115 -7 -16
-10 -35 -8 -42 6 -17 56 59 68 104 6 20 17 43 24 51 8 7 17 31 20 54 5 29 18
50 47 77 22 20 44 34 49 31 4 -3 39 -7 77 -10z m-631 -64 c-19 -173 -27 -291
-33 -516 l-8 -250 -7 145 c-7 142 3 375 22 555 5 50 10 100 10 113 0 14 4 21
11 17 7 -5 8 -28 5 -64z m310 -88 c-3 -87 -8 -266 -12 -398 -3 -132 -7 -280
-9 -330 -1 -49 -3 -159 -4 -242 -1 -132 -3 -153 -17 -153 -13 0 -15 18 -10
147 4 82 11 303 18 493 6 190 12 368 13 395 1 28 3 94 4 148 0 63 5 97 12 97
8 0 9 -46 5 -157z m764 143 c0 -11 -19 -15 -25 -6 -3 5 1 10 9 10 9 0 16 -2
16 -4z m31 -53 c1 -10 0 -22 -1 -28 -3 -10 -11 -71 -44 -325 -15 -119 -21
-160 -61 -440 -22 -151 -27 -194 -41 -330 -9 -96 -19 -135 -35 -138 -17 -3
-15 21 10 183 6 39 21 135 32 215 11 80 27 195 35 255 9 61 20 139 24 175 4
36 19 148 34 249 14 101 26 187 26 192 0 17 20 9 21 -8z m43 -29 c18 -7 12
-24 -10 -24 -8 0 -14 7 -14 15 0 17 2 18 24 9z m171 -5 c4 -6 13 -8 21 -5 17
7 17 2 -1 -114 -25 -150 -63 -331 -79 -379 -9 -24 -16 -52 -16 -63 0 -10 -4
-17 -8 -14 -5 3 -23 -23 -41 -59 -18 -35 -39 -69 -47 -76 -9 -7 -25 -31 -36
-53 -11 -23 -39 -66 -61 -96 -23 -30 -43 -57 -44 -59 -10 -14 -11 13 -2 69 5
36 16 113 24 172 9 60 22 138 31 175 8 36 14 78 13 92 -1 14 4 46 11 71 7 25
16 65 19 90 5 40 9 45 31 45 32 0 34 29 2 33 -17 3 -22 9 -20 30 1 15 -2 37
-6 49 -10 32 2 48 21 26 11 -14 15 -15 20 -4 4 10 11 7 27 -10 24 -27 65 -53
73 -46 2 3 -17 26 -44 52 -45 44 -46 46 -20 41 26 -6 27 -5 17 14 -10 18 -8
20 18 20 29 0 62 -28 77 -65 7 -18 9 -18 12 -3 3 10 -3 28 -11 40 -9 12 -16
26 -16 30 0 12 28 10 35 -3z m-1271 -15 c3 -8 1 -35 -5 -60 -11 -44 -6 -564 7
-680 5 -46 4 -52 -20 -68 -15 -9 -31 -14 -36 -11 -13 8 -13 383 0 585 5 85 11
176 11 203 2 37 6 47 20 47 9 0 20 -7 23 -16z m293 -6 c-3 -8 -6 -5 -6 6 -1
11 2 17 5 13 3 -3 4 -12 1 -19z m-77 -163 c0 -19 -4 -35 -10 -35 -11 0 -13 30
-4 54 10 25 14 19 14 -19z m1329 -53 c-17 -59 -48 -168 -80 -287 -6 -22 -35
-115 -65 -206 -32 -101 -51 -175 -48 -190 4 -17 3 -20 -4 -11 -7 10 -11 5 -16
-22 -4 -19 -13 -48 -21 -63 -8 -15 -15 -33 -15 -40 0 -21 -44 -97 -48 -85 -2
7 7 42 21 80 55 151 162 487 208 652 57 209 70 250 79 245 5 -3 0 -36 -11 -73z
m41 -16 c0 -20 -60 -199 -72 -213 -5 -7 -8 -20 -5 -30 4 -16 5 -16 11 2 5 11
14 36 22 55 l15 35 -4 -40 c-8 -76 -186 -519 -187 -463 0 14 16 64 36 110 76
177 125 317 94 268 -18 -28 -22 -1 -7 47 8 26 27 89 42 138 15 50 30 93 32 98
7 12 23 8 23 -7z m-855 -7 c4 -6 13 -8 21 -5 7 3 16 1 19 -4 4 -6 17 -10 30
-10 12 0 25 -7 29 -15 3 -8 14 -15 24 -15 33 0 53 -35 59 -98 7 -70 -3 -124
-18 -101 -5 7 -6 29 -3 46 13 70 -6 92 -116 135 -58 23 -65 23 -104 -7 -37
-28 -64 -32 -72 -11 -8 21 26 55 62 62 18 3 35 12 38 20 6 17 22 18 31 3z
m-530 -477 c-5 -46 -10 -62 -20 -59 -15 6 -35 -11 -35 -30 0 -7 7 -13 15 -13
8 0 15 5 15 10 0 6 5 10 10 10 11 0 13 -190 1 -260 l-7 -45 -14 30 c-11 21
-27 33 -54 40 -22 7 -42 17 -44 23 -2 7 -12 12 -21 12 -10 0 -26 9 -36 20 -18
20 -18 21 2 49 57 76 161 314 179 411 8 42 9 38 12 -45 2 -49 0 -118 -3 -153z
m1005 134 c0 -7 -6 -26 -14 -41 -8 -15 -17 -55 -20 -89 -11 -105 -28 -230 -33
-246 -3 -8 -8 -31 -10 -50 -2 -19 -6 -36 -9 -39 -10 -10 -113 -11 -119 -1 -4
6 -14 1 -25 -12 -14 -17 -19 -19 -20 -8 0 13 -1 13 -10 0 -16 -25 -22 -4 -15
54 5 40 18 72 48 118 46 71 57 66 27 -13 -11 -30 -20 -61 -20 -69 0 -17 47 87
60 135 19 66 23 75 31 75 12 0 11 -37 -1 -45 -5 -3 -10 -16 -10 -28 0 -12 -9
-37 -20 -55 -11 -18 -20 -40 -20 -50 0 -10 -7 -27 -15 -39 -9 -12 -11 -24 -6
-27 5 -4 27 40 49 96 52 136 55 145 43 153 -12 7 26 88 66 142 12 17 23 36 23
42 0 6 5 11 10 11 6 0 10 -6 10 -14z m-1160 -225 c0 -5 -13 -11 -30 -14 -16
-4 -39 -16 -50 -27 -30 -30 -24 -10 7 22 25 26 73 39 73 19z m-38 -71 c-5 -32
-19 -40 -28 -16 -5 14 13 45 27 46 3 0 4 -13 1 -30z m-112 -6 c0 -8 -7 -14
-16 -14 -20 0 -104 -49 -104 -61 0 -5 23 2 51 17 28 14 53 23 56 20 3 -3 -13
-26 -36 -51 -34 -37 -41 -51 -40 -82 1 -27 3 -32 8 -18 24 70 51 91 51 39 0
-13 6 -33 13 -45 10 -17 9 -22 -6 -33 -16 -12 -14 -14 15 -20 57 -11 136 -55
167 -93 17 -20 34 -33 38 -29 4 4 0 13 -10 20 -9 7 -17 19 -17 26 0 15 40 7
85 -17 19 -10 62 -17 115 -18 47 -2 123 -8 170 -14 47 -6 115 -11 153 -11 64
0 89 -12 47 -23 -11 -3 -20 -10 -20 -15 0 -14 32 -25 39 -13 17 26 132 43 146
21 7 -11 -32 -29 -82 -37 -18 -3 -30 -9 -27 -14 9 -15 67 -10 127 11 51 18 73
20 175 14 90 -5 121 -3 135 8 15 12 13 13 -20 12 -21 0 -56 -4 -78 -8 -36 -6
-77 5 -64 18 2 3 36 8 74 11 39 4 91 15 117 26 26 10 54 19 64 19 9 0 22 7 29
16 11 16 38 14 133 -12 25 -7 11 -23 -35 -40 -27 -9 -64 -29 -83 -44 -64 -48
-88 -53 -234 -45 -131 7 -134 6 -182 -19 -66 -35 -128 -35 -193 1 -48 27 -50
27 -120 15 -95 -16 -155 -15 -221 3 -30 9 -94 17 -141 18 -84 2 -87 3 -127 39
-54 48 -106 75 -188 94 -80 18 -120 37 -134 63 -15 28 -12 82 6 116 8 16 14
41 13 55 -5 48 9 65 67 85 30 10 57 22 60 27 8 12 24 0 24 -18z m37 -21 c-3
-10 -5 -4 -5 12 0 17 2 24 5 18 2 -7 2 -21 0 -30z m43 -72 c0 -61 39 -114 76
-105 27 7 34 -13 9 -22 -27 -11 -61 5 -75 33 -29 63 -32 72 -26 81 3 6 1 14
-5 18 -9 5 -11 -6 -7 -39 3 -26 2 -44 -3 -41 -13 8 -11 108 3 122 19 19 28 4
28 -47z m-60 -85 c0 -15 -3 -16 -15 -6 -9 7 -15 28 -14 49 l1 36 13 -30 c8
-16 14 -38 15 -49z m241 -30 c14 -18 16 -27 8 -32 -7 -4 -17 0 -24 9 -7 10
-17 17 -24 17 -6 0 -17 12 -23 26 -10 22 -17 25 -44 21 -26 -4 -33 -1 -42 18
-6 13 -8 26 -5 29 9 9 133 -61 154 -88z m954 4 c4 -12 2 -27 -4 -33 -12 -15
-18 -78 -8 -94 13 -21 -23 -34 -99 -36 l-77 -2 -4 54 c-3 36 -1 51 6 47 6 -4
11 -14 11 -22 0 -17 -3 -17 60 -3 33 7 50 16 50 26 0 12 -10 13 -50 9 -46 -5
-50 -4 -41 13 6 10 24 24 41 31 29 12 33 11 60 -15 31 -30 40 -24 15 9 -8 10
-12 23 -9 27 10 17 43 9 49 -11z m205 -9 c0 -20 -29 -56 -37 -47 -7 7 20 66
29 66 5 0 8 -9 8 -19z m-1331 -15 c17 -20 96 -39 134 -33 45 7 59 -3 41 -28
-13 -18 -19 -18 -72 -7 -73 15 -142 48 -142 67 0 19 24 19 39 1z m1263 -58
c-7 -7 -12 -8 -12 -2 0 14 12 26 19 19 2 -3 -1 -11 -7 -17z m-1052 -18 c0 -5
-5 -10 -11 -10 -5 0 -7 5 -4 10 3 6 8 10 11 10 2 0 4 -4 4 -10z m235 -11 c55
-5 167 -16 250 -25 82 -8 151 -16 153 -19 2 -2 1 -9 -3 -16 -6 -8 -27 -10 -74
-5 -330 31 -489 47 -503 52 -10 3 -18 12 -18 20 0 12 10 14 48 9 26 -3 92 -10
147 -16z m467 -61 c-15 -15 -26 -4 -18 18 5 13 9 15 18 6 9 -9 9 -15 0 -24z"/>
<path d="M825 2140 c-3 -5 -2 -10 4 -10 5 0 13 5 16 10 3 6 2 10 -4 10 -5 0
-13 -4 -16 -10z"/>
<path d="M1857 2270 c-3 -13 0 -20 8 -20 8 0 13 9 12 20 -1 11 -4 20 -8 20 -4
0 -9 -9 -12 -20z"/>
<path d="M1903 2275 c0 -8 4 -15 9 -15 4 0 8 7 8 15 0 8 -4 15 -8 15 -5 0 -9
-7 -9 -15z"/>
<path d="M1886 2184 c-11 -30 -7 -36 21 -29 36 9 38 12 23 30 -16 19 -36 19
-44 -1z"/>
<path d="M2071 1884 c0 -11 3 -14 6 -6 3 7 2 16 -1 19 -3 4 -6 -2 -5 -13z"/>
<path d="M2132 1813 c2 -14 8 -28 14 -30 17 -6 26 27 13 43 -18 22 -31 16 -27
-13z"/>
<path d="M2105 1570 c-10 -16 4 -50 21 -50 8 0 14 8 14 19 0 23 -25 47 -35 31z"/>
<path d="M2070 1472 c0 -4 20 -18 45 -30 56 -27 57 -23 5 12 -42 28 -50 31
-50 18z"/>
<path d="M1998 1056 c-10 -7 -18 -16 -18 -20 0 -13 58 -6 63 8 11 27 -16 34
-45 12z"/>
<path d="M1900 818 c0 -7 5 -20 10 -28 12 -19 35 2 27 24 -7 19 -37 21 -37 4z"/>
<path d="M1954 765 c-4 -11 -20 -42 -36 -68 -31 -52 -36 -73 -11 -42 15 19 15
18 9 -15 -6 -34 -6 -35 10 -12 12 17 13 26 4 37 -9 10 -5 23 15 55 14 23 24
47 22 53 -3 7 -8 4 -13 -8z"/>
<path d="M1887 579 c-4 -16 -3 -18 9 -8 16 13 19 29 5 29 -5 0 -11 -9 -14 -21z"/>
<path d="M1081 2333 c-29 -36 -35 -57 -9 -35 15 12 52 72 44 72 -2 0 -18 -17
-35 -37z"/>
<path d="M1050 2236 c0 -8 71 -48 76 -43 3 2 -11 14 -31 26 -36 21 -45 24 -45
17z"/>
<path d="M1456 2241 c-23 -43 -19 -52 5 -13 12 18 19 35 16 38 -3 3 -13 -8
-21 -25z"/>
<path d="M1298 2083 c7 -3 16 -2 19 1 4 3 -2 6 -13 5 -11 0 -14 -3 -6 -6z"/>
<path d="M1028 2063 c-18 -4 -26 -53 -10 -53 12 0 42 34 42 48 0 12 -3 13 -32
5z"/>
<path d="M1070 2000 c-6 -11 -8 -20 -6 -20 3 0 10 9 16 20 6 11 8 20 6 20 -3
0 -10 -9 -16 -20z"/>
<path d="M1046 1953 c-6 -14 -5 -15 5 -6 7 7 10 15 7 18 -3 3 -9 -2 -12 -12z"/>
<path d="M1015 1900 c-3 -5 -1 -10 4 -10 6 0 11 5 11 10 0 6 -2 10 -4 10 -3 0
-8 -4 -11 -10z"/>
<path d="M872 2026 c-18 -24 -32 -50 -32 -56 0 -7 16 11 36 40 44 63 40 77 -4
16z"/>
<path d="M745 1960 c3 -5 8 -10 11 -10 2 0 4 5 4 10 0 6 -5 10 -11 10 -5 0 -7
-4 -4 -10z"/>
<path d="M737 1832 c-37 -99 -33 -126 4 -32 16 41 28 82 26 90 -1 8 -15 -18
-30 -58z"/>
<path d="M845 1880 c3 -5 11 -10 16 -10 6 0 7 5 4 10 -3 6 -11 10 -16 10 -6 0
-7 -4 -4 -10z"/>
<path d="M1948 2003 c7 -3 16 -2 19 1 4 3 -2 6 -13 5 -11 0 -14 -3 -6 -6z"/>
<path d="M1406 1834 c-9 -23 -3 -26 28 -18 31 7 30 27 -1 32 -12 2 -23 -4 -27
-14z"/>
<path d="M1615 1800 c-8 -13 3 -50 15 -50 12 0 23 37 15 50 -3 5 -10 10 -15
10 -5 0 -12 -5 -15 -10z"/>
<path d="M1517 1794 c-9 -10 4 -34 19 -34 8 0 14 9 14 20 0 19 -19 27 -33 14z"/>
<path d="M1320 1710 c0 -5 5 -10 10 -10 6 0 10 5 10 10 0 6 -4 10 -10 10 -5 0
-10 -4 -10 -10z"/>
<path d="M1767 1704 c-14 -14 -7 -35 11 -32 9 2 17 10 17 17 0 16 -18 25 -28
15z"/>
<path d="M674 1310 c0 -52 1 -74 3 -47 2 26 2 68 0 95 -2 26 -3 4 -3 -48z"/>
<path d="M711 1271 c-15 -10 -8 -41 8 -41 13 0 32 35 24 44 -8 8 -15 7 -32 -3z"/>
<path d="M673 1025 c0 -44 2 -61 4 -37 2 23 2 59 0 80 -2 20 -4 1 -4 -43z"/>
<path d="M681 774 c0 -11 3 -14 6 -6 3 7 2 16 -1 19 -3 4 -6 -2 -5 -13z"/>
<path d="M1155 1580 c-8 -13 20 -24 40 -16 8 3 15 10 15 16 0 13 -47 13 -55 0z"/>
<path d="M1118 1553 c-19 -5 -25 -33 -7 -33 19 0 50 21 44 31 -6 9 -9 10 -37
2z"/>
<path d="M1476 1547 c-42 -26 -169 -117 -162 -117 3 0 23 9 43 20 21 11 43 20
49 20 7 0 14 -9 17 -20 3 -11 11 -20 18 -20 10 0 10 3 1 12 -27 27 -3 67 63
101 24 13 26 16 10 16 -11 0 -29 -6 -39 -12z"/>
<path d="M1465 1470 c-11 -18 6 -30 44 -30 44 0 55 8 40 27 -13 15 -75 18 -84
3z"/>
<path d="M1270 1460 c0 -5 9 -10 20 -10 11 0 20 5 20 10 0 6 -9 10 -20 10 -11
0 -20 -4 -20 -10z"/>
<path d="M1075 1450 c-8 -13 20 -24 40 -16 8 3 15 10 15 16 0 13 -47 13 -55 0z"/>
<path d="M1185 1441 c-3 -5 0 -13 5 -16 15 -9 60 3 60 15 0 13 -57 13 -65 1z"/>
<path d="M1052 1399 c2 -17 11 -25 27 -27 24 -4 24 -3 9 19 -21 33 -40 37 -36
8z"/>
<path d="M1310 1386 c0 -29 10 -38 30 -26 11 7 12 14 4 27 -17 27 -34 27 -34
-1z"/>
<path d="M1455 1370 c-9 -15 4 -30 26 -30 22 0 24 11 7 28 -15 15 -25 15 -33
2z"/>
<path d="M1568 1373 c-10 -3 -18 -8 -18 -13 0 -16 35 -29 51 -20 12 8 12 11
-1 23 -8 7 -23 12 -32 10z"/>
<path d="M1235 1320 c-8 -13 3 -30 20 -30 11 0 25 20 25 36 0 9 -39 4 -45 -6z"/>
<path d="M1550 1282 c0 -6 5 -14 11 -17 6 -4 14 -17 19 -29 9 -21 9 -21 9 0 1
11 -8 29 -19 39 -11 10 -20 13 -20 7z"/>
<path d="M1013 1173 c-18 -7 -16 -43 2 -43 9 0 15 9 15 25 0 14 -1 25 -2 24
-2 0 -9 -3 -15 -6z"/>
<path d="M975 1111 c-6 -10 25 -31 44 -31 17 0 13 27 -5 34 -22 8 -32 8 -39
-3z"/>
<path d="M1100 1055 c-7 -8 -9 -22 -6 -31 5 -13 9 -14 21 -4 17 14 20 36 6 44
-5 3 -14 -1 -21 -9z"/>
<path d="M1220 1042 c0 -11 96 -72 114 -72 24 0 19 17 -7 24 -13 3 -40 17 -61
31 -40 27 -46 29 -46 17z"/>
<path d="M1330 1041 c0 -5 7 -12 16 -15 14 -5 15 -4 4 9 -14 17 -20 19 -20 6z"/>
<path d="M1147 993 c-4 -3 -7 -15 -7 -25 0 -28 34 -19 38 10 3 21 -16 31 -31
15z"/>
<path d="M1253 913 c-18 -7 -16 -33 2 -33 8 0 15 2 15 4 0 2 3 11 6 20 6 16 0
19 -23 9z"/>
<path d="M1031 879 c-1 -44 55 -141 99 -172 88 -62 252 -87 323 -50 18 9 27
18 20 20 -7 2 -21 0 -32 -6 -33 -18 -160 -13 -218 8 -87 32 -132 78 -172 178
-16 39 -20 43 -20 22z"/>
<path d="M1223 794 c-8 -21 13 -42 28 -27 13 13 5 43 -11 43 -6 0 -13 -7 -17
-16z"/>
<path d="M1290 801 c0 -14 28 -33 40 -26 20 12 10 35 -15 35 -14 0 -25 -4 -25
-9z"/>
<path d="M920 755 c0 -17 5 -25 13 -22 6 2 12 12 12 22 0 10 -6 20 -12 23 -8
2 -13 -6 -13 -23z"/>
<path d="M1170 761 c-7 -13 -7 -22 0 -26 13 -8 30 3 30 20 0 23 -18 27 -30 6z"/>
<path d="M1456 734 c-4 -9 -1 -23 6 -31 10 -12 13 -12 20 1 9 15 1 46 -12 46
-4 0 -11 -7 -14 -16z"/>
<path d="M1044 622 c-16 -29 -48 -78 -71 -110 -42 -56 -50 -72 -35 -72 20 1
146 203 139 223 -2 7 -17 -12 -33 -41z"/>
<path d="M1111 606 c-8 -10 -8 -16 2 -25 16 -13 27 -5 27 21 0 21 -13 23 -29
4z"/>
<path d="M933 575 c-3 -9 -3 -18 0 -21 9 -9 48 16 42 27 -9 14 -35 11 -42 -6z"/>
<path d="M1235 578 c-10 -25 -2 -53 15 -53 20 0 24 26 6 50 -13 18 -15 18 -21
3z"/>
<path d="M1400 540 c0 -11 7 -20 15 -20 8 0 15 9 15 20 0 11 -7 20 -15 20 -8
0 -15 -9 -15 -20z"/>
<path d="M1457 523 c-13 -12 -7 -43 8 -43 9 0 15 9 15 25 0 24 -10 32 -23 18z"/>
<path d="M1331 429 c-23 -70 -25 -79 -12 -79 9 0 46 128 38 136 -2 3 -14 -23
-26 -57z"/>
<path d="M1087 453 c-4 -3 -7 -15 -7 -25 0 -28 34 -19 38 10 3 21 -16 31 -31
15z"/>
<path d="M1384 446 c-14 -11 -16 -18 -8 -26 8 -8 15 -7 28 5 31 31 16 47 -20
21z"/>
<path d="M1267 443 c-4 -3 -7 -12 -7 -20 0 -17 26 -17 33 1 8 21 -11 35 -26
19z"/>
<path d="M1422 408 c-7 -7 -12 -18 -12 -25 0 -18 29 -16 37 3 8 21 -10 37 -25
22z"/>
<path d="M1203 385 c-3 -9 -3 -18 0 -21 10 -10 47 7 47 22 0 19 -39 18 -47 -1z"/>
<path d="M1840 1266 c0 -7 7 -19 15 -26 12 -10 16 -9 21 3 3 9 3 21 -1 27 -9
15 -35 12 -35 -4z"/>
<path d="M1686 1174 c-9 -23 14 -46 34 -34 11 7 12 14 4 27 -15 24 -30 27 -38
7z"/>
<path d="M1740 1022 c0 -4 7 -18 16 -30 13 -18 19 -21 30 -11 13 10 12 14 -2
30 -17 19 -44 26 -44 11z"/>
<path d="M773 664 c-8 -21 13 -42 28 -27 13 13 5 43 -11 43 -6 0 -13 -7 -17
-16z"/>
<path d="M706 612 c-12 -11 -5 -32 10 -32 12 0 15 -6 10 -25 -4 -14 -2 -25 3
-25 10 0 41 39 41 51 0 10 -58 38 -64 31z"/>
<path d="M1775 750 c-3 -5 -2 -10 4 -10 5 0 13 5 16 10 3 6 2 10 -4 10 -5 0
-13 -4 -16 -10z"/>
<path d="M1745 588 c-11 -27 -2 -49 14 -38 12 7 12 14 4 32 -9 20 -12 21 -18
6z"/>
<path d="M1606 494 c-4 -9 -4 -19 -1 -22 2 -3 7 3 11 12 4 9 4 19 1 22 -2 3
-7 -3 -11 -12z"/>
<path d="M397 493 c-11 -10 -8 -92 3 -114 6 -10 18 -19 27 -19 13 0 12 5 -7
25 -19 20 -22 32 -18 70 6 47 5 49 -5 38z"/>
<path d="M560 344 c0 -2 12 -10 28 -18 15 -8 40 -26 56 -41 15 -14 31 -23 35
-20 9 10 -69 73 -96 78 -13 2 -23 3 -23 1z"/>
<path d="M780 240 c-24 -8 -24 -8 5 -9 17 0 37 4 45 9 12 8 11 10 -5 9 -11 -1
-31 -5 -45 -9z"/>
<path d="M896 221 c49 -29 55 -30 160 -26 60 1 114 4 119 5 20 5 -92 18 -161
19 -43 1 -83 7 -100 16 -56 29 -71 16 -18 -14z"/>
<path d="M1846 235 c-11 -8 -15 -15 -10 -15 6 0 19 7 30 15 10 8 15 14 9 14
-5 0 -19 -6 -29 -14z"/>
<path d="M1620 311 c-25 -3 -40 -9 -34 -13 15 -10 134 2 134 13 0 10 -29 10
-100 0z"/>
</g>
</svg>
